Coordinates
version=1
nRows=11
nColumns=36
inDegrees=yes

Units are S.I. units (second, meters, Newtons, ...)
If the header above contains a line with 'inDegrees', this indicates whether rotational values are in degrees (yes) or radians (no).

endheader
time	pelvis_tilt	pelvis_list	pelvis_rotation	pelvis_tx	pelvis_ty	pelvis_tz	hip_flexion_r	hip_adduction_r	hip_rotation_r	knee_angle_r	knee_angle_r_beta	ankle_angle_r	subtalar_angle_r	mtp_angle_r	hip_flexion_l	hip_adduction_l	hip_rotation_l	knee_angle_l	knee_angle_l_beta	ankle_angle_l	subtalar_angle_l	mtp_angle_l	lumbar_extension	lumbar_bending	lumbar_rotation	arm_flex_r	arm_add_r	arm_rot_r	elbow_flex_r	pro_sup_r	arm_flex_l	arm_add_l	arm_rot_l	elbow_flex_l	pro_sup_l
      1.12000000	    -10.02557383	     -0.56263436	      4.87508863	     -0.71729263	      1.56406614	     -0.56865625	     27.46650803	     -1.76491548	      1.04913870	     49.60536703	      0.86577698	    -25.88855389	    -15.74829589	     -5.69857637	     20.97686540	     -8.48223285	     -2.58030335	     51.41011669	      0.89727581	    -36.45389291	    -23.59846764	     -5.69857637	    -11.35836111	      0.39226355	      8.98626170	    -24.43665396	    -27.59818790	    -29.68584778	    125.52037944	    113.22637788	     29.17947040	    -42.03712546	     19.05084784	    127.57118916	     98.54153071
      1.13000000	     -9.98596630	     -0.40354818	      4.99003131	     -0.70893887	      1.56642865	     -0.56688438	     28.05923891	     -1.96695858	      0.98301958	     48.70509135	      0.85006421	    -25.44557212	    -16.18198628	     -5.71091086	     22.08234474	     -8.73171898	     -2.59134736	     52.58026198	      0.91769869	    -35.70781131	    -24.23756976	     -5.71091086	    -12.03112441	      0.25119745	      8.88221902	    -24.44008690	    -26.59235703	    -29.90153011	    124.58808089	    113.20157555	     28.50710590	    -42.43496889	     18.91715406	    127.35269686	     98.59013652
      1.14000000	    -10.32059785	     -0.45072308	      5.13402667	     -0.70080194	      1.56726428	     -0.56518490	     29.01761823	     -2.04199729	      0.70783719	     47.62620751	      0.83123413	    -25.18041724	    -16.77876779	     -5.74773837	     23.69178316	     -9.18113141	     -2.56094800	     53.71134424	      0.93743980	    -34.87672123	    -24.32678303	     -5.74773837	    -12.27348762	      0.33725150	      8.49790276	    -24.20087329	    -25.94533929	    -29.45626915	    123.59570919	    113.32781055	     27.18624563	    -42.82906932	     18.09116257	    127.28492600	     98.81291643
      1.15000000	    -10.42344691	     -0.25768966	      5.23733456	     -0.69243261	      1.56783207	     -0.56364319	     29.62687421	     -2.37437849	      0.41937182	     46.32953754	      0.80860297	    -24.95169408	    -17.26656882	     -5.86352417	     24.84522624	     -9.39447345	     -2.72176370	     54.38224497	      0.94914923	    -34.29191104	    -24.16596701	     -5.86352417	    -12.83502420	      0.19138997	      7.22498752	    -22.68085793	    -25.64202317	    -27.85387525	    121.96559026	    113.64690542	     24.41146140	    -43.67767029	     15.55589808	    127.81681927	     99.63579758
      1.16000000	    -10.40977322	      0.00147284	      5.29615268	     -0.68411226	      1.56755299	     -0.56190343	     30.08820910	     -2.74668628	      0.13498122	     44.95225370	      0.78456483	    -24.49877033	    -17.48465201	     -5.87179346	     25.80541673	     -9.57767936	     -2.98918355	     54.79040233	      0.95627292	    -34.17435831	    -24.33333897	     -5.87179346	    -13.53494133	     -0.06673862	      7.23043795	    -22.54640804	    -24.68340980	    -27.95875775	    120.87380915	    113.58816719	     23.88325280	    -43.75954270	     15.50118184	    127.37754588	     99.63855103
      1.17000000	    -10.63099641	      0.08445390	      5.38854153	     -0.67594566	      1.56598124	     -0.55994550	     30.78028676	     -2.95875500	     -0.25209929	     43.47458906	      0.75877472	    -23.96556703	    -17.67007414	     -5.90326693	     27.09690437	     -9.93211730	     -3.18651013	     55.15265159	      0.96259536	    -33.87246238	    -24.26101849	     -5.90326693	    -13.91981055	     -0.16359424	      6.90455222	    -21.94675259	    -23.94166012	    -27.42932541	    119.35590919	    113.61902913	     22.91788191	    -43.99028822	     14.88578525	    127.02188841	     99.78066134
      1.18000000	    -10.63257216	      0.47074935	      5.41557358	     -0.66755700	      1.56390124	     -0.55801415	     31.18584658	     -3.42736227	     -0.43594398	     41.93229437	      0.73185660	    -23.68978072	    -17.61385077	     -5.91500693	     27.94715649	    -10.00420586	     -3.60974889	     55.14800195	      0.96251421	    -33.63162268	    -24.13100351	     -5.91500693	    -14.67158585	     -0.57776841	      6.85473305	    -21.66793549	    -23.06767820	    -27.30920961	    118.34414582	    113.44142060	     22.28623764	    -44.06029244	     14.71894274	    126.59704612	     99.77554476
      1.19000000	    -10.70526513	      0.79601266	      5.51369649	     -0.65910676	      1.56073116	     -0.55638551	     31.62793157	     -3.91317344	     -0.79973463	     40.30610953	      0.70347432	    -23.47402716	    -17.38058784	     -5.92490326	     28.85831850	    -10.06799548	     -3.95364393	     54.97923449	      0.95956866	    -33.32632810	    -23.88727040	     -5.92490326	    -15.29486925	     -0.90205771	      6.73376413	    -21.37024692	    -22.23986299	    -27.09352755	    117.22374862	    113.26590779	     21.67743502	    -44.03477372	     14.60102670	    126.14898839	     99.77981818
      1.20000000	    -10.96701578	      0.98726376	      5.78008657	     -0.65067700	      1.55629669	     -0.55524800	     32.23569397	     -4.42046765	     -1.41747113	     38.63530165	      0.67431322	    -23.12034002	    -16.32040875	     -6.08655085	     30.04921415	    -10.12758437	     -4.01257247	     54.77849501	      0.95606510	    -32.07042863	    -22.45449268	     -6.08655085	    -15.66618851	     -0.97231984	      4.50127861	    -18.80830598	    -22.53973483	    -24.07410451	    115.05943626	    113.71984454	     17.35402381	    -44.71020816	     10.31846768	    127.00630992	    101.62650260
      1.21000000	    -11.13798287	      1.18301552	      5.99355440	     -0.64242592	      1.55088599	     -0.55412305	     32.74307725	     -4.86955882	     -1.95499221	     36.89962985	      0.64402003	    -23.27841547	    -15.50622113	     -6.10535360	     31.07034186	    -10.15787720	     -4.08874963	     54.32034289	      0.94806883	    -31.65459403	    -21.76342067	     -6.10535360	    -16.13133059	     -1.05127237	      4.40524010	    -18.49383026	    -21.96458744	    -23.89126947	    114.00801324	    113.60691650	     16.99402979	    -44.38053485	     10.25116318	    126.35719499	    101.65085968
      1.22000000	    -11.30761937	      1.37829845	      6.16122712	     -0.63399125	      1.54456955	     -0.55286310	     33.21234286	     -5.26301929	     -2.38613788	     35.13006425	      0.61313529	    -23.06815748	    -14.19517537	     -6.17446441	     31.99144124	    -10.22842523	     -4.19806196	     53.68904994	      0.93705069	    -30.15269283	    -19.85673930	     -6.17446441	    -16.60651633	     -1.12465232	      3.81670504	    -17.60337711	    -21.64067363	    -23.00618789	    112.82300456	    113.92058223	     15.62257954	    -44.25087234	      9.07869931	    126.14498209	    102.09095949
